/* XPM */
static char *_fb2195d72a64897dfd6977ce82fe4fdZzQ01lxABQPGKtEm[] = {
/* columns rows colors chars-per-pixel */
"64 64 8 1 ",
"  c #305900",
". c #892900",
"X c #B7531D",
"o c #C04500",
"O c #D76729",
"+ c #458900",
"@ c #82C700",
"# c #ACCD6E",
/* pixels */
"oooooooooooooooooooo.Oooooooooooooooooooooo.Xooooooooooooooooooo",
"ooooooooooooooooooo..Ooooooooooooooooooooo..Xooooooooooooooooooo",
"ooooooooooooooooooo.OOoooooooooooooooooooo.XOooooooooooooooooooo",
"ooooooooooooooooooo.XOoooooooooooooooooooo.XOooooooooooooooooooo",
"Ooooooooooooooooooo..XOOoooooooooooooooooo.XOooooooooooooooooooo",
"OOOooooooooooooooooo..XOoooooooooooooooooo.XOOooooooooooo..ooooo",
"..OOooooooooooooooooo..  ooooooooooooooooo.XXOoooooooooooo..oooo",
"X..Oooo...oooooooooooo.+ Ooooooooooooooooo..XXOOoooooooooo..oooo",
"XX......O...oooooooo+##+ Oooooooooooooooooo....XOOOOoo..........",
"XXXXXOO+OOO..ooooooo #++    oooooooooooo....ooo........Xoooooooo",
"XXOOOO++oooo..oooooo.@@+   oooooo...oo...oooooooo..XXXOOoooooooo",
"XOOoo++oooooo..oooo...@@+.OOOo....X....ooooooooo..XXOooooooooooo",
"@#@oo oooooooo........ooo......XXXXX...ooooooooo.XXOOooooooooooo",
"XO@+o oooooooo..XOOOoooooo..XXXOOoooo..ooooooooo.XOOoooooooooooo",
"OOo+  oooooooo.XXOOoooooo..XOOOOoooooooooooooooo.XOooooooooooooo",
"Oooo  ooooooo..XOOooooooo.XOOooooooooooooooooooo.XOooooooooooooo",
"ooooo ooooooo.XXOoooooooo.XOOooooooooooooooooooo.XO@oooooooooooo",
"oooo@  oooooo..XOoooooooo.XOOooooooooooooooooooo.X@+ ooooooooooo",
"ooo#@  ooooooo.XOOooooooo..XOOoooooooooooooooooo.X@  O   ooooooo",
"oo##+    ooooo...OOooooooo..XOOoooooooooooooooo##@+     oooooooo",
"oo### oo    oooo..OOooooooo..XOOooooooooooooooo.#@+     oo...ooo",
"Ooooooooooo ooooo..OOoooooo...XOOoooooooooooo.... ++  .....+....",
"XOoooooooooo ooo....OOoooo....XXOOoooooo......ooo..+..XOOO.+.ooo",
"XXOO.......o oo..oo............XXXOO.....ooooooooo...XOooo.++ooo",
"..X..XOO.X..  ..oooooooooooo..+++....OOoooooooooooo.XOoooo..@ooo",
"X...XOO..XX.. ..ooooooooooooo+@++++OOOooooooooooooo.Oooooooo   o",
"XXXOOo..XOOO...oooooooooooo+@@@ ++++ooooooooooooooo.Oooooooo o  ",
"XXOOoo.XXOooO.ooooooooooooo####  O++oooooooooooooo..Oooooooo oo ",
"XOOooo.XOoooooooooooooooooo@+o   oooooooooooooooo..XOooooooo+ oo",
"OOoooo.Oooooooooooooooooooooooo  oooooooooooooooo.XOoooooooo++oo",
"Oooooo.OOooooooooooooooooooooo. Ooooooooooooooooo.XOooooooooo oo",
"oooooo.OOOoooooooooooooooooooo.XOoooooooooooooooo.XXOOoooooo  oo",
"oooooo..XOOooooooooooooooooooo.XOoooooooooooooooo.XXXOOOOoo##ooo",
"ooooooo..XOOoooooooooooooooooo..OOOOoooooo..ooooo..........#oooo",
"oooooooo.XXOOo...ooooooooooooooo...OOOoooo..oooo... ....OO..oooo",
"oooooooo.......X..ooooooooooooo..X...OOoooo..oo..o. .XXOOoo..ooo",
"oooooooo..XXXXXXX..oooooooooo...XXXX...oooo....oooo#.XOooooo....",
"ooooooooo.XXXOOOOO...ooooo......XOOOOOO.....oooooo##.OOooooooooo",
"ooooooooo..XOOoooooo ...... ooo.XOooooo  oooooooo++oo.Oooooooooo",
"oooooooooo.OOooooooo ooooo  ooo..Oooooo@  oooooo  ooo.Oooooooooo",
"Oooooooooo.Ooooooooo  oo@@ ooooo.Oooooo@@+oooo    ooo.Oooooooooo",
"OOoooooooo.Oooooooooo@ o#ooooooo.OOooooo@@     o oooo..ooooooooo",
"XOOooooooo.Oooooooooo@@@#ooooooo..Ooooooo  oooo  oooo..ooooooooo",
"XXOOoooooo.OOooooooooo@@@+  ooooo.Ooooooo+ooooo ooooo.oooooooooo",
"XXXXOooo...XOOOoooooooooo+++  oo..OOOoooo+ooooo oooo..oooooooooo",
"....X......XXOOOooooooooooooo  .....OOooo+ooooo  o...ooooooooooo",
"XXX...XOO.........ooooooooo..  .ooo....oo@oooooo ..X..oooooooooo",
"XXO  OOoo. .ooooo...oooo...XX...oooooo...@........XOO..ooooooo..",
"XOOo oooo  oooooooo......XOOo..oooooooooo+.....XXXOooo.........o",
"XOoo ooo  ooooooooo.XXXOOOoooo.ooooooooooo.....XOOoooooooooooooo",
"OOoo oo++oooooooooo.XOOOooooooooooooooooooo...XOOooooooooooooooo",
"Oooo#oo@ ooooooooo..XOooooooooooooooooooooo...Oooooooooooooooooo",
"Oooo##o@ ooooooooo.XOOooooooooooooooooooooo..XOooooooooooooooooo",
"oooo@@@@@ooooooooo.XOoooooooooooooooooooooo.XOoooooooooooooooooo",
"oooooo@@+ooooooooo.XOooooooooooooooooooooo..Oooooooooooooooooooo",
"ooooooo@+   @@@   ..XOOooooooooooooooooooo.XOooooooooooooooooooo",
"oooooooooooooo@@++   .XOOooooooooooooooooo.Xoooooooooooooooooooo",
"Oooooooooooooooooo+   ..Oooooooooooooooooo.XOooooooooooooooooooo",
"Oooooooooooooooooo..   ..ooooooooooooooo...X++oooooooooooooooooo",
"Ooooooooooooooooo..X........ooooooooo....@##+ O+++oooooooooooooo",
"XOoooooooooooooo..XOOOO..oo...........ooo@@#   + ooooooooooooooo",
"XOOooooooooooo...XOoooooooooooooooooooooooo#+   Oooooooooooooooo",
"XOOOooooooo....XOOooooooooooooooooooooooooo@+ + OOoooooooooooooo",
"XXXOOooooo..XXOOooooooooooooooooooooooooooo@@@  XOOOoooooooooooo"
};
