/* XPM */
static char *e9fc23ddfdcf4c67f356fbc1259c1ad19JKHpZJGR0IQvthZ[] = {
/* columns rows colors chars-per-pixel */
"64 64 8 1 ",
"  c #305900",
". c #892900",
"X c #B7531D",
"o c #C04500",
"O c #D76729",
"+ c #458900",
"@ c #82C700",
"# c #ACCD6E",
/* pixels */
"oooooooooooooooooooX.oooooooooooooooooooooO.oooooooooooooooooooo",
"oooooooooooooooooooX..ooooooooooooooooooooO..ooooooooooooooooooo",
"oooooooooooooooooooOX.ooooooooooooooooooooOO.ooooooooooooooooooo",
"oooooooooooooooooooOX.ooooooooooooooooooooOX.ooooooooooooooooooo",
"oooooooooooooooooooOX.ooooooooooooooooooOOX..ooooooooooooooooooO",
"ooooo..oooooooooooOOX.ooooooooooooooooooOX..oooooooooooooooooOOO",
"oooo..ooooooooooooOXX.ooooooooooooooooo  ..oooooooooooooooooOO..",
"oooo..ooooooooooOOXX..ooooooooooooooooO +.oooooooooooo...oooO..X",
"..........ooOOOOX....oooooooooooooooooO +##+oooooooo...O......XX",
"ooooooooX........ooo....oooooooooooo    ++# ooooooo..OOO+OOXXXXX",
"ooooooooOOXXX..oooooooo...oo...oooooo   +@@.oooooo..oooo++OOOOXX",
"oooooooooooOXX..ooooooooo....X....oOOO.+@@...oooo..oooooo++ooOOX",
"oooooooooooOOXX.ooooooooo...XXXXX......ooo........oooooooo oo@#@",
"ooooooooooooOOX.ooooooooo..ooooOOXXX..ooooooOOOX..oooooooo o+@OX",
"oooooooooooooOX.ooooooooooooooooOOOOX..ooooooOOXX.oooooooo  +oOO",
"oooooooooooooOX.oooooooooooooooooooOOX.oooooooOOX..ooooooo  oooO",
"oooooooooooo@OX.oooooooooooooooooooOOX.ooooooooOXX.ooooooo ooooo",
"ooooooooooo +@X.oooooooooooooooooooOOX.ooooooooOX..oooooo  @oooo",
"ooooooo   O  @X.ooooooooooooooooooOOX..oooooooOOX.ooooooo  @#ooo",
"oooooooo     +@##ooooooooooooooooOOX..oooooooOO...ooooo    +##oo",
"ooo...oo     +@#.oooooooooooooooOOX..oooooooOO..oooo    oo ###oo",
"....+.....  ++ ....ooooooooooooOOX...ooooooOO..ooooo ooooooooooO",
"ooo.+.OOOX..+..ooo......ooooooOOXX....ooooOO....ooo ooooooooooOX",
"ooo++.oooOX...ooooooooo.....OOXXX............oo..oo o.......OOXX",
"ooo@..ooooOX.ooooooooooooOO....+++..oooooooooooo..  ..X.OOX..X..",
"o   oooooooO.oooooooooooooOOO++++@+ooooooooooooo.. ..XX..OOX...X",
"  o oooooooO.ooooooooooooooo++++ @@@+oooooooooooo...OOOX..oOOXXX",
" oo oooooooO..oooooooooooooo++O  ####ooooooooooooo.OooOXX.ooOOXX",
"oo +oooooooOX..oooooooooooooooo   o+@ooooooooooooooooooOX.oooOOX",
"oo++ooooooooOX.oooooooooooooooo  oooooooooooooooooooooooO.ooooOO",
"oo oooooooooOX.ooooooooooooooooO .oooooooooooooooooooooOO.oooooO",
"oo  ooooooOOXX.ooooooooooooooooOX.ooooooooooooooooooooOOO.oooooo",
"ooo##ooOOOOXXX.ooooooooooooooooOX.oooooooooooooooooooOOX..oooooo",
"oooo#..........ooooo..ooooooOOOO..ooooooooooooooooooOOX..ooooooo",
"oooo..OO.... ...oooo..ooooOOO...ooooooooooooooo...oOOXX.oooooooo",
"ooo..ooOOXX. .o..oo..ooooOO...X..ooooooooooooo..X.......oooooooo",
"....oooooOX.#oooo....oooo...XXXX...oooooooooo..XXXXXXX..oooooooo",
"oooooooooOO.##oooooo.....OOOOOOX......ooooo...OOOOOXXX.ooooooooo",
"oooooooooO.oo++oooooooo  oooooOX.ooo ...... ooooooOOX..ooooooooo",
"oooooooooO.ooo  oooooo  @oooooO..ooo  ooooo oooooooOO.oooooooooo",
"oooooooooO.ooo    oooo+@@oooooO.ooooo @@oo  ooooooooO.oooooooooO",
"ooooooooo..oooo o     @@oooooOO.ooooooo#o @oooooooooO.ooooooooOO",
"ooooooooo..oooo  oooo  ooooooO..ooooooo#@@@oooooooooO.oooooooOOX",
"oooooooooo.ooooo ooooo+ooooooO.ooooo  +@@@oooooooooOO.ooooooOOXX",
"oooooooooo..oooo ooooo+ooooOOO..oo  +++ooooooooooOOOX...oooOXXXX",
"ooooooooooo...o  ooooo+oooOO.....  oooooooooooooOOOXX......X....",
"oooooooooo..X.. oooooo@oo....ooo.  ..ooooooooo.........OOX...XXX",
"..ooooooo..OOX........@...oooooo...XX...oooo...ooooo. .ooOO  OXX",
"o.........oooOXXX.....+oooooooooo..oOOX......oooooooo  oooo oOOX",
"ooooooooooooooOOX.....ooooooooooo.ooooOOOXXX.ooooooooo  ooo ooOX",
"oooooooooooooooOOX...oooooooooooooooooooOOOX.oooooooooo++oo ooOO",
"oooooooooooooooooO...oooooooooooooooooooooOX..ooooooooo @oo#oooO",
"oooooooooooooooooOX..oooooooooooooooooooooOOX.ooooooooo @o##oooO",
"ooooooooooooooooooOX.ooooooooooooooooooooooOX.ooooooooo@@@@@oooo",
"oooooooooooooooooooO..oooooooooooooooooooooOX.ooooooooo+@@oooooo",
"oooooooooooooooooooOX.oooooooooooooooooooOOX..   @@@   +@ooooooo",
"ooooooooooooooooooooX.oooooooooooooooooOOX.   ++@@oooooooooooooo",
"oooooooooooooooooooOX.oooooooooooooooooO..   +oooooooooooooooooO",
"oooooooooooooooooo++X...ooooooooooooooo..   ..oooooooooooooooooO",
"oooooooooooooo+++O +##@....ooooooooo........X..ooooooooooooooooO",
"ooooooooooooooo +   #@@ooo...........oo..OOOOX..ooooooooooooooOX",
"oooooooooooooooO   +#ooooooooooooooooooooooooOX...oooooooooooOOX",
"ooooooooooooooOO + +@oooooooooooooooooooooooooOOX....oooooooOOOX",
"ooooooooooooOOOX  @@@oooooooooooooooooooooooooooOOXX..oooooOOXXX"
};
